inDegrees=yes
name=ik_S47_A06_T01
DataType=double
version=3
OpenSimVersion=4.3-2021-08-27-4bc7ad9
endheader
time	pelvis_tilt	pelvis_list	pelvis_rotation	pelvis_tx	pelvis_ty	pelvis_tz	hip_flexion_r	hip_adduction_r	hip_rotation_r	knee_angle_r	knee_angle_r_beta	ankle_angle_r	subtalar_angle_r	mtp_angle_r	hip_flexion_l	hip_adduction_l	hip_rotation_l	knee_angle_l	knee_angle_l_beta	ankle_angle_l	subtalar_angle_l	mtp_angle_l	lumbar_extension	lumbar_bending	lumbar_rotation	arm_flex_r	arm_add_r	arm_rot_r	elbow_flex_r	pro_sup_r	wrist_flex_r	wrist_dev_r	arm_flex_l	arm_add_l	arm_rot_l	elbow_flex_l	pro_sup_l	wrist_flex_l	wrist_dev_l
0	0	0	0	0	0.9399999999999999	0	0	0	0	0	0	0	0	0	0	0	0	0	0	0	0	0	0	0	0	0	0	0	0	89.99999999963507	0	0	0	0	0	0	89.99999999869995	0	0
0.02	-15.84357563451106	-3.822700970639155	24.11342632391575	0	0.9399999999999999	0	4.006030089306106	-1.855054747632623	-1.346321111356759	6.151194613253668	0.1073585989322157	0	0	0	4.006030089306106	-1.855054747632623	-1.346321111356759	6.151194613253668	0.1073585989322157	0	0	0	-14.66742747943934	-1.832248780262329	2.566068472261454	46.77588743120526	-1.380229863220641	12.01524718082327	41.13888964469795	116.4894469909242	0	0	45.99488420776396	1.567486806677495	18.09017647968249	32.07749700368664	104.4992724167052	0	0
0.04	-15.12324904783021	-4.959410352254356	25.13792480889161	0	0.9399999999999999	0	30.34659745473716	-12.70210332082778	-9.544700957698153	41.48353735388473	0.7240243121993446	0	0	0	30.34659745473716	-12.70210332082778	-9.544700957698153	41.48353735388473	0.7240243121993446	0	0	0	-14.85540759813937	-0.3097016674099969	1.938588702065686	46.76050389786941	-1.376613746947406	12.07384920616975	41.16180005483484	116.4595933408913	0	0	45.99467152748917	1.531832624146639	17.99099619653472	32.07289455039778	104.5706785361447	0	0
0.06	-15.12375851272085	-4.973067113994516	25.14145894200309	0	0.9399999999999999	0	30.40336983084661	-12.66766886863045	-9.54846704334601	41.51893262291676	0.7246420761835828	0	0	0	30.40336983084661	-12.66766886863045	-9.54846704334601	41.51893262291676	0.7246420761835828	0	0	0	-14.86458013702831	-0.3134797801848761	1.926310685074984	46.76424323124388	-1.394499485496872	12.10367859900443	41.2105890032694	116.4111874423101	0	0	45.9702593588075	1.51714177759503	17.94112842711706	32.21099865194512	104.548613772366	0	0
0.08	-15.11765534677543	-4.981703943382081	25.14006096711185	0	0.9399999999999999	0	30.4419291235507	-12.64994502249894	-9.550712122638314	41.54402763115848	0.7250800667032158	0	0	0	30.4419291235507	-12.64994502249894	-9.550712122638314	41.54402763115848	0.7250800667032158	0	0	0	-14.86440274089607	-0.319087609484797	1.921361138472808	46.7631786630718	-1.409488636622154	12.08678567930028	41.19028763845521	116.4069280805489	0	0	45.95308598377022	1.504497950992027	17.90219149127717	32.23642467587315	104.5657958249862	0	0
0.1	-15.12620059239397	-5.003965231712028	25.14121320189354	0	0.9399999999999999	0	30.46054192081075	-12.64120042277102	-9.551806860559363	41.55618514877636	0.7252922554145171	0	0	0	30.46054192081075	-12.64120042277102	-9.551806860559363	41.55618514877636	0.7252922554145171	0	0	0	-14.88245499178378	-0.3324508489352641	1.914984238150957	46.8001058546262	-1.411036478647629	12.06469273377505	41.15853446957752	116.433369979436	0	1.939704916135324e-34	45.97713846776355	1.473071265375133	17.88321434694922	32.23312335104804	104.5944076266336	0	1.939704916135324e-34
0.12	-15.14399757224701	-5.023375430615507	25.14176773146643	0	0.9399999999999999	0	30.47327478353496	-12.63256607782032	-9.552701355922814	41.56402269298442	0.7254290463662184	0	0	0	30.47327478353496	-12.63256607782032	-9.552701355922814	41.56402269298442	0.7254290463662184	0	0	0	-14.90727840160497	-0.3406818447464885	1.911959595350047	46.8189081459194	-1.427819381029213	12.0315721737962	41.14802898731899	116.4452166712598	0	0	46.02016043948707	1.461077494040837	17.84383951426241	32.25452842090277	104.6158220658312	0	0
0.14	-15.15230774258947	-5.037978876623692	25.14831514950976	0	0.9399999999999999	0	30.52363094675594	-12.60230843993149	-9.556026886932168	41.59548401253967	0.7259781499794795	0	0	0	30.52363094675594	-12.60230843993149	-9.556026886932168	41.59548401253967	0.7259781499794795	0	0	0	-14.92363926280722	-0.3428173226672364	1.901093460105833	46.83925372142012	-1.443922953133357	12.05235244548733	41.2113365815829	116.4146030312612	0	0	46.0091456579451	1.438689475775291	17.79497820784488	32.3676098043444	104.6326301341767	0	0
0.16	-15.15478818963956	-5.055075066232745	25.15784069913443	0	0.9399999999999999	0	30.54674248264146	-12.58759399539895	-9.557601366608589	41.60980640224787	0.7262281228366414	0	0	0	30.54674248264146	-12.58759399539895	-9.557601366608589	41.60980640224787	0.7262281228366414	0	0	0	-14.93471215371172	-0.3516482870252349	1.887723794196504	46.8276344310772	-1.434540342973747	12.04988969606651	41.19713994705033	116.4298738331003	0	0	46.01591613473832	1.412979402908874	17.70682151509991	32.39252709564566	104.6808094227952	0	0
0.18	-15.17960879724427	-5.088941842024908	25.14750599041019	0	0.9399999999999999	0	30.55406113976057	-12.58226372065205	-9.55813491469492	41.61423752299773	0.7263054604832799	0	0	0	30.55406113976057	-12.58226372065205	-9.55813491469492	41.61423752299773	0.7263054604832799	0	0	0	-14.97242002753638	-0.3679343898308653	1.875085304924103	46.84738820264653	-1.43533741655755	12.07102688034732	41.20222453920396	116.44560221853	0	0	46.07657622897026	1.381523748004929	17.7068337997582	32.39623897636528	104.7027165036184	0	0
0.2	-15.19191394732507	-5.098084365354159	25.16092578719783	0	0.9399999999999999	0	30.57855860791814	-12.56601954003862	-9.559842391898753	41.62929550972309	0.726568271930359	0	0	0	30.57855860791814	-12.56601954003862	-9.559842391898753	41.62929550972309	0.726568271930359	0	0	0	-14.98888396689435	-0.3664014826902029	1.867300771538253	46.85906210585124	-1.443993401708008	12.05433363481185	41.21032037016042	116.4562116517137	0	0	46.06617016667091	1.378142531880199	17.61844224761512	32.43367526930827	104.7233506146948	0	0
0.22	-15.2035093499449	-5.121136444068795	25.1526741957114	0	0.9399999999999999	0	30.5973476000163	-12.55441197874344	-9.561105757851942	41.64103449741447	0.7267731559164247	0	0	0	30.5973476000163	-12.55441197874344	-9.561105757851942	41.64103449741447	0.7267731559164247	0	0	0	-15.00994410134944	-0.3798223660300192	1.862792264476151	46.87998629857104	-1.447894799658658	12.04935749006124	41.19606025239479	116.4877188736774	0	0	46.1180626628027	1.342650433543655	17.62294223747168	32.4375850659899	104.7423483115018	0	0
0.24	-15.20923058526041	-5.135009916931625	25.1845045236899	0	0.9399999999999999	0	30.59885222709045	-12.55352344704321	-9.561203818123772	41.64198809034212	0.726789799252736	0	0	0	30.59885222709045	-12.55352344704321	-9.561203818123772	41.64198809034212	0.726789799252736	0	0	0	-15.02143168472245	-0.3878368218187037	1.855126408389446	46.90977420670201	-1.440401436393864	11.99889818013189	41.197237500483	116.4824642339852	0	1.077613842297402e-35	46.07322771377591	1.338268281751035	17.49248945570152	32.47351543033816	104.7874000644558	0	1.077613842297402e-35
0.26	-15.21461941128591	-5.145022688106831	25.19035343702714	0	0.9399999999999999	0	30.6475273604579	-12.52652394671657	-9.564293108586957	41.672800509479	0.7273275774171789	0	0	0	30.6475273604579	-12.52652394671657	-9.564293108586957	41.672800509479	0.7273275774171789	0	0	0	-15.03326616998602	-0.3867674772396062	1.843711809370599	46.90803008000416	-1.45419333979471	12.01576676727522	41.24874062695582	116.452120617038	0	0	46.07515578639965	1.329372651469243	17.43336089826494	32.58119085468879	104.8449032145933	0	0
0.28	-15.21884144837666	-5.15355722856185	25.19453256694186	0	0.9399999999999999	0	30.65400824958861	-12.52602891543237	-9.564529716501156	41.67758082859195	0.7274110097249959	0	0	0	30.65400824958861	-12.52602891543237	-9.564529716501156	41.67758082859195	0.7274110097249959	0	0	0	-15.0415081066086	-0.3891999058458964	1.834416519041429	46.91791961178389	-1.46627464765237	12.02015710608942	41.19083106881996	116.4847178312514	0	0	46.09544972220801	1.306454763573254	17.40232376676645	32.52972156224737	104.9095140101455	0	0
0.3	-15.22407424434155	-5.158564068590541	25.19968929189573	0	0.9399999999999999	0	30.66999733191372	-12.5166305084892	-9.565572233508062	41.68764674967232	0.7275866931900943	0	0	0	30.66999733191372	-12.5166305084892	-9.565572233508062	41.68764674967232	0.7275866931900943	0	0	0	-15.04919680079164	-0.3891754863021197	1.831595525922568	46.93456293674202	-1.458124245651193	12.02294447845722	41.19596112168615	116.4841118754464	0	0	46.0839257412861	1.298639549873682	17.38954782513906	32.56060586301115	104.9320464254557	0	0
0.32	-15.23046241503162	-5.167582525720435	25.19300701019434	0	0.9399999999999999	0	30.69056082879508	-12.5044512621689	-9.566917085848754	41.70054456595788	0.7278118025505947	0	0	0	30.69056082879508	-12.5044512621689	-9.566917085848754	41.70054456595788	0.7278118025505947	0	0	0	-15.05985933733917	-0.3913811826613471	1.826887509191474	46.90750806751105	-1.489536467766709	12.05601660303564	41.2252573856856	116.4709950582082	0	0	46.10377240587618	1.255010351328431	17.39392924483343	32.61049727787321	104.9347584014987	0	0
0.34	-15.23602896882387	-5.176090738938834	25.18934774571777	0	0.9399999999999999	0	30.71176829554895	-12.49486642076399	-9.568140882397621	41.71429471609645	0.7280517879431564	0	0	0	30.71176829554895	-12.49486642076399	-9.568140882397621	41.71429471609645	0.7280517879431564	0	0	0	-15.06980996349523	-0.3928411301324303	1.820528266881566	46.92847302491727	-1.460082374530427	12.05575198198758	41.18993308055808	116.4913135299412	0	0	46.0983267789433	1.254533107318032	17.37775086403881	32.57991202202452	104.9724364749524	0	0
0.36	-15.24311180402609	-5.184999287192559	25.18910369885362	0	0.9399999999999999	0	30.71707947257932	-12.49097159125844	-9.568529281116573	41.71750352283117	0.7281077921857374	0	0	0	30.71707947257932	-12.49097159125844	-9.568529281116573	41.71750352283117	0.7281077921857374	0	0	0	-15.08028710248833	-0.3968057575247504	1.818062035770371	46.93095428382122	-1.465054489647292	12.0732925354903	41.19362820669085	116.4921514487116	0	0	46.10322750313887	1.243338512925144	17.3875618934906	32.59028987761253	104.9822547810611	0	0
